<svg xmlns="http://www.w3.org/2000/svg" width="521" height="301.117" viewBox="0 0 521 301.117">
  <g id="HornCodeLogo" transform="translate(-76.569 -43)">
    <ellipse id="Ellipse_37" data-name="Ellipse 37" cx="8.5" cy="8" rx="8.5" ry="8" transform="translate(259 130)" fill="#98dbdc"/>
    <rect id="Rectangle_40" data-name="Rectangle 40" width="386" height="88" rx="14" transform="translate(211.569 150)" fill="#202d40"/>
    <path id="Tracé_162" data-name="Tracé 162" d="M55.445.4c.338-1.16,61.37-3.734,95.626,58.123C148.474,59.98,51.189,48.6,46.25,186.611,10.291,161.354-41.03,69.438,55.444.4,55.251.534,55.348.465,55.445.4Z" transform="matrix(0.469, -0.883, 0.883, 0.469, 77.527, 256.509)" fill="#84d4d5" opacity="0.83"/>
    <path id="Tracé_161" data-name="Tracé 161" d="M57.612.4c.338-1.16,61.37-3.734,95.626,58.123-2.6,1.461-121.67-9-126.609,129.009C11.6,160.169-38.862,69.438,57.612.4,57.419.534,57.516.465,57.612.4Z" transform="translate(156.78 52.695) rotate(3)" fill="#017a97" opacity="0.83"/>
    <path id="Tracé_163" data-name="Tracé 163" d="M61.3.421c.36-1.233,65.3-3.973,101.747,61.844-2.764,1.554-129.457-9.581-134.712,137.265C12.337,170.42-41.349,73.881,61.3.421Z" transform="matrix(0.669, -0.743, 0.743, 0.669, 76.569, 182.611)" fill="#017a97" opacity="0.83"/>
    <text id="horn_code" data-name="horn code" transform="translate(404 215)" fill="#fff" font-size="61" font-family="EB Garamond" font-weight="800"><tspan x="-189.1" y="0">HORN CODE</tspan></text>
    <ellipse id="Ellipse_39" data-name="Ellipse 39" cx="18" cy="18.5" rx="18" ry="18.5" transform="translate(240 248)" fill="#1a8aa2"/>
    <circle id="Ellipse_40" data-name="Ellipse 40" cx="18" cy="18" r="18" transform="translate(147 43)" fill="#01718e"/>
    <circle id="Ellipse_38" data-name="Ellipse 38" cx="8" cy="8" r="8" transform="translate(220 242)" fill="#01718e"/>
    <path id="Intersection_1" data-name="Intersection 1" d="M13.847,6C31.569.029,53.987-2.658,80.611,3.5c-.369,1.642-26.768,26.852-35.652,65.425-11.43,17.446-19.919,41.007-22.73,72.826C11.89,120.354-17.025,61.209,13.847,6Z" transform="translate(151.329 99.609)" fill="#013856" opacity="0.72"/>
  </g>
</svg>
